<svg xmlns="http://www.w3.org/2000/svg" xmlns:xlink="http://www.w3.org/1999/xlink" viewBox="0 0 318.36 75.54"><defs><linearGradient id="mk11-linear-gradient" x1="159.3" y1="76.84" x2="158.97" y2="-0.07" gradientUnits="userSpaceOnUse"><stop offset="0.47" stop-color="#fda90f"></stop> <stop offset="1" stop-color="#ffcd70"></stop></linearGradient></defs> <g id="Layer_2" data-name="Layer 2"><g id="logo"><path d="M149.8,75.54l-8.24-14.19V16.79h-4.85L149.8,0ZM168.9,0,155.8,16.79h4.85V75.5l8.25-14.15ZM134,45.82l-2.19,4.86a.42.42,0,0,1-.38.24H114.34l2-2V23.13l-2-2h9.91l-2,2V47.58h7.36ZM122.21,23.1Zm-8.43,27.82h-9.19l0,0,1.54-1.62-1.71-5.79-6.85,0-1.75,5.84,1.6,1.6H88.23l2.47-2.46L98.08,23.1l-1.75-2h9.53l-1.89,2,7.26,25.36,2.52,2.45ZM103.66,40.21,101,31l-2.67,9.17ZM85.17,24.4h5.9l2.39,1.73-1.23-4.58a.57.57,0,0,0-.55-.45H72.57a.57.57,0,0,0-.55.45l-1.23,4.58,2.39-1.73h5.9V48.89l-2,2H87.17l-2-2ZM71.78,48.49l2.52,2.43H67.19c-1-1.56-6.74-12.25-6.74-12.25l-2.41,0s0,10.18,0,10.25l2,2h-10l2-2c0-.07,0-25.8,0-25.8l-2-2H65.92c2.37,0,3,1.32,3,2.38V35.73A2.9,2.9,0,0,1,66,38.42C66.09,38.63,71.78,48.49,71.78,48.49ZM63.14,25.41a1.05,1.05,0,0,0-1.18-1L58,24.4V35.29h4.18c.82,0,.92-.45.92-.8ZM48.5,23.48V48.7c0,1.24-.71,2.22-3.25,2.22H32.41c-1.63,0-3.06-.81-3.06-2.23V23.48c0-1.22.54-2.38,3.22-2.38H45.4C47.19,21.1,48.5,21.88,48.5,23.48Zm-5.89,24.1V26.27c0-1.26-.52-1.87-1.22-1.87h-6V45.83c0,1.11.56,1.75,1.2,1.75ZM27.51,50.9h0l-2-2c0-.07,0-25,0-25.78h0l2-2H19.65a.3.3,0,0,0-.29.23c-.5,2.06-5.66,17.75-5.66,17.75S8.34,23.34,7.81,21.27a.26.26,0,0,0-.25-.19H0l2,2H2C2,24.57,2,48.82,2,48.9l-2,2H10l-2-2C8,48.81,8,35,8,35L13.69,50.9,19.32,35s0,13.85,0,13.92l-2,2H27.51ZM309.24,24.4h5.9l2.39,1.73-1.23-4.58a.57.57,0,0,0-.55-.45H296.64a.57.57,0,0,0-.55.45l-1.23,4.58,2.39-1.73h5.9V48.89l-2,2h10.13l-2-2ZM299.18,50.91H290l1.54-1.62-1.71-5.8-6.86,0-1.74,5.84,1.6,1.6h-9.22l2.47-2.46,7.38-25.35-1.74-2h9.53l-1.89,2,7.26,25.35,2.52,2.45ZM289.06,40.2,286.43,31l-2.67,9.17Zm-17.76-6c.43,0,1.71.65,1.71,1.71V48.21a2.65,2.65,0,0,1-2.76,2.71H253.08l2-2V23.13h0l-2-2h17.18A2.81,2.81,0,0,1,273,23.44v8.69A2.42,2.42,0,0,1,271.3,34.24Zm-5.48-9.84H261v9h4.67a1.05,1.05,0,0,0,1.14-1V25.47C266.82,24.7,266.49,24.4,265.82,24.4Zm1.09,13.37a1.12,1.12,0,0,0-1.24-1.09H261V47.58h4.93a1,1,0,0,0,1-1ZM251.22,50.92h0l-2-2s0-25,0-25.79h0l2-2h-7.85a.3.3,0,0,0-.3.22c-.49,2.06-5.66,17.75-5.66,17.75S232,23.36,231.52,21.29a.27.27,0,0,0-.26-.19h-7.55l2,2v0h0v0c0,1.45,0,25.78,0,25.78l-2,2h10l-2-2,0-14,5.72,16.07L243,34.85l0,14-2,2h10.23ZM221.67,23.48V48.7c0,1.24-.71,2.22-3.25,2.22H205.58c-1.63,0-3.06-.81-3.06-2.23V23.48c0-1.22.53-2.38,3.22-2.38h12.82C220.35,21.1,221.67,21.88,221.67,23.48Zm-5.9,24.1V26.27c0-1.26-.51-1.87-1.21-1.87h-6V45.83c0,1.11.56,1.75,1.2,1.75ZM197,23.48l3.65-2.38H190.12l1.31,2-7.09,10.76V23.1l2-2h-9.87l2,2V48.9l-2,2h9.88l-2-2V42.67l2.24-3.39s5.82,9.82,6.88,11.64h7.46l-2.75-2.46-8.33-14.11ZM313.27,48.27h.85v2.66h.32V48.27h.85V48h-2Zm3.84,1.81-1-2.1h-.31v3h.31V48.69l.82,1.78h.27l.81-1.78v2.24h.31V48h-.31Z" class="mk11-cls-2"></path></g></g></svg>